<svg width="16" height="16" viewBox="0 0 16 16" fill="none" xmlns="http://www.w3.org/2000/svg">
  <path d="M8.60683 5.33334C8.60683 5.00197 8.3382 4.73334 8.00683 4.73334C7.67546 4.73334 7.40683 5.00197 7.40683 5.33334H8.60683ZM7.40683 8.66668C7.40683 8.99805 7.67546 9.26668 8.00683 9.26668C8.3382 9.26668 8.60683 8.99805 8.60683 8.66668H7.40683ZM8.00683 11.2667C8.3382 11.2667 8.60683 10.998 8.60683 10.6667C8.60683 10.3353 8.3382 10.0667 8.00683 10.0667V11.2667ZM8.00016 10.0667C7.66879 10.0667 7.40016 10.3353 7.40016 10.6667C7.40016 10.998 7.66879 11.2667 8.00016 11.2667V10.0667ZM8.85725 1.56366L8.55734 2.08333L8.55734 2.08333L8.85725 1.56366ZM9.49387 2.19538L8.97751 2.50094L8.97753 2.50098L9.49387 2.19538ZM9.49555 2.19822L10.0136 1.89549L10.0119 1.89262L9.49555 2.19822ZM14.4328 10.647L14.9556 10.3525L14.9508 10.3443L14.4328 10.647ZM14.6668 11.5376L14.0668 11.5392L14.6668 11.5376ZM14.4376 12.4294L13.9132 12.1378L13.9132 12.1378L14.4376 12.4294ZM13.8058 13.086L13.4959 12.5722V12.5722L13.8058 13.086ZM12.939 13.3333L12.9322 12.7333H12.9322L12.939 13.3333ZM12.9326 13.3333L12.9326 13.9334L12.9394 13.9333L12.9326 13.3333ZM3.06132 13.3333L3.05456 13.9333H3.06132L3.06132 13.3333ZM2.19454 13.086L1.88465 13.5998H1.88465L2.19454 13.086ZM1.56275 12.4294L1.03837 12.721H1.03837L1.56275 12.4294ZM1.3335 11.5376L1.9335 11.5392L1.3335 11.5376ZM1.56761 10.6471L1.04486 10.3526L1.04485 10.3526L1.56761 10.6471ZM1.57228 10.6388L1.05418 10.336L1.04953 10.3443L1.57228 10.6388ZM6.50645 2.19538L5.99008 1.88981L5.98842 1.89265L6.50645 2.19538ZM7.40683 5.33334L7.40683 8.66668H8.60683L8.60683 5.33334H7.40683ZM8.00683 10.0667H8.00016V11.2667H8.00683V10.0667ZM8.00016 0.733343C7.59395 0.733343 7.19541 0.84071 6.84317 1.044L7.44298 2.08333C7.61402 1.98463 7.80586 1.93334 8.00016 1.93334V0.733343ZM9.15716 1.044C8.80491 0.84071 8.40638 0.733343 8.00016 0.733343V1.93334C8.19446 1.93334 8.38631 1.98463 8.55734 2.08333L9.15716 1.044ZM10.0102 1.88982C9.80264 1.53901 9.50929 1.24722 9.15716 1.044L8.55734 2.08333C8.72849 2.1821 8.87366 2.32545 8.97751 2.50094L10.0102 1.88982ZM10.0119 1.89262L10.0102 1.88978L8.97753 2.50098L8.97921 2.50382L10.0119 1.89262ZM15.2668 11.5359C15.2657 11.1214 15.1588 10.7134 14.9555 10.3526L13.91 10.9415C14.0118 11.1223 14.0662 11.3284 14.0668 11.5392L15.2668 11.5359ZM14.962 12.721C15.1632 12.3591 15.268 11.9506 15.2668 11.5359L14.0668 11.5392C14.0674 11.7499 14.0141 11.9564 13.9132 12.1378L14.962 12.721ZM14.1157 13.5998C14.4694 13.3864 14.7607 13.083 14.962 12.721L13.9132 12.1378C13.8124 12.3191 13.668 12.4684 13.4959 12.5722L14.1157 13.5998ZM12.9458 13.9332C13.3584 13.9286 13.7618 13.8132 14.1157 13.5998L13.4959 12.5722C13.3239 12.676 13.1296 12.7311 12.9322 12.7333L12.9458 13.9332ZM12.9394 13.9333L12.9458 13.9332L12.9322 12.7333L12.9258 12.7334L12.9394 13.9333ZM1.88465 13.5998C2.23845 13.8132 2.64183 13.9286 3.05456 13.9333L3.06808 12.7333C2.87075 12.7311 2.67645 12.676 2.50443 12.5722L1.88465 13.5998ZM1.03837 12.721C1.23965 13.083 1.53092 13.3864 1.88465 13.5998L2.50443 12.5722C2.33234 12.4684 2.18796 12.3191 2.08713 12.1378L1.03837 12.721ZM0.733505 11.5359C0.732373 11.9506 0.837129 12.3591 1.03837 12.721L2.08713 12.1378C1.98624 11.9564 1.93293 11.7499 1.9335 11.5392L0.733505 11.5359ZM1.04485 10.3526C0.841626 10.7134 0.734638 11.1213 0.733505 11.5359L1.9335 11.5392C1.93408 11.3285 1.98852 11.1224 2.09037 10.9416L1.04485 10.3526ZM1.04953 10.3443L1.04486 10.3526L2.09037 10.9416L2.09503 10.9333L1.04953 10.3443ZM6.84317 1.044C6.49104 1.24721 6.19768 1.539 5.99008 1.88982L7.02281 2.50094C7.12666 2.32545 7.27183 2.18211 7.44298 2.08333L6.84317 1.044ZM14.9508 10.3443L10.0136 1.89549L8.97752 2.50094L13.9147 10.9498L14.9508 10.3443ZM3.06132 13.9333L12.9326 13.9333L12.9326 12.7333L3.06132 12.7333L3.06132 13.9333ZM5.98842 1.89265L1.05425 10.3361L2.09031 10.9415L7.02448 2.4981L5.98842 1.89265Z" fill="white"/>
</svg>
